<svg width="36" height="40" xmlns="http://www.w3.org/2000/svg"><path fill="#68D4F8" fill-rule="nonzero" d="M28.62 16.15l4.34 2.44c1.38.77 1.38 2.03 0 2.8l-12.48 7.02a5.64 5.64 0 0 1-4.99 0L3.02 21.4c-1.38-.77-1.38-2.03 0-2.8l4.35-2.46 7.16 4.02.1.05a7.64 7.64 0 0 0 6.75 0l.1-.05 7.14-4.01z"/><path fill="#4CB7E9" fill-rule="nonzero" d="M28.62 26.15l4.34 2.44c1.38.77 1.38 2.03 0 2.8l-12.48 7.02a5.64 5.64 0 0 1-4.99 0L3.02 31.4c-1.38-.77-1.38-2.03 0-2.8l4.35-2.46 7.16 4.02.1.05a7.64 7.64 0 0 0 6.75 0l.1-.05 7.14-4.01z"/><path fill="#FFF" fill-rule="nonzero" d="M20.48 1.47L32.96 8.5c1.38.78 1.38 2.03 0 2.8l-12.48 7.02a5.64 5.64 0 0 1-4.99 0L3.02 11.3c-1.38-.78-1.38-2.03 0-2.8l12.47-7.02a5.64 5.64 0 0 1 5 0z"/></svg>
