<svg xmlns="http://www.w3.org/2000/svg" viewBox="0 0 70 70"><g fill="none" fill-rule="evenodd"><path fill="#FFFFFF" d="M51.64 42.94l-6.2 6.34-1.69-1.9c-.73-.63-1.89.1-1.36 1.06l2 3.39c.3.42 1.05.84 1.78 0 .32-.43 6.31-7.94 6.31-7.94.74-.84-.2-1.58-.84-.95z"/><circle cx="22.5" cy="22.5" r="9.5" fill="#68D4F8"/><path fill="#FFFFFF" d="M26.64 17.94l-6.2 6.34-1.69-1.9c-.73-.63-1.89.1-1.36 1.06l2 3.38c.3.43 1.04.85 1.78 0 .32-.42 6.31-7.93 6.31-7.93.74-.84-.2-1.58-.84-.95z"/><circle cx="47.5" cy="22.5" r="9.5" fill="#68D4F8"/><path fill="#FFFFFF" d="M51.64 17.94l-6.2 6.34-1.69-1.9c-.73-.63-1.89.1-1.36 1.06l2 3.38c.3.43 1.05.85 1.78 0 .32-.42 6.31-7.93 6.31-7.93.74-.84-.2-1.58-.84-.95z"/><circle cx="47.5" cy="47.5" r="9.5" fill="#68D4F8"/><path fill="#FFFFFF" d="M51.64 42.94l-6.2 6.34-1.69-1.9c-.73-.63-1.89.1-1.36 1.06l2 3.39c.3.42 1.05.84 1.78 0 .32-.43 6.31-7.94 6.31-7.94.74-.84-.2-1.58-.84-.95z"/><circle cx="22.5" cy="47.5" r="9.5" fill="#D8F5FF"/></g></svg>