<svg width="436" height="583" viewBox="0 0 436 583" xmlns="http://www.w3.org/2000/svg"><g fill="none" fill-rule="evenodd"><rect stroke="#EFF1F5" stroke-width="2" fill="#FFF" x="1" y="1" width="434" height="581" rx="5"/><path d="M0 5c0-2.76 2.24-5 5-5h426c2.76 0 5 2.25 5 5v45H0V5z" fill="#004D85"/><path fill="#003B66" d="M0 50h436v10H0z"/><path d="M22.96 13.16l-7.12 5.67-.8 8.62 5.9 7.05L47 36.98l1.96-21.3-26-2.52zm-5.36 11.1c-.4-.04-.7-.4-.66-.8.04-.42.4-.72.8-.68.4.03.7.4.66.8-.04.42-.4.72-.8.68z" fill="#010101"/><path d="M23.13 13.64l-6.86 5.4-.8 8.23 5.7 6.75L46.6 36.5l1.88-20.38-25.35-2.48zm-4.3 10c-.07.63-.64 1.1-1.27 1.05-.63-.07-1.1-.65-1.04-1.3.06-.64.63-1.12 1.26-1.05.63.06 1.1.63 1.04 1.28z" fill="#F6EB16"/><path fill="#010101" d="M28 18.1l5.75.55-.17 1.76-2.6-.24-.04.56 2.36.23-.15 1.6-2.35-.2-.06.63 2.65.25-.17 1.67-5.8-.56M34.6 22.84l-1.08 1.64s1.37.75 3.26.9c1.9.2 3.3-.37 3.73-1.3.46-.92-.08-1.96-.95-2.26-.88-.3-2.4-.6-2.25-.9.16-.3 1.12-.25 1.7 0 .58.25.74.4.74.4l1-1.46s-1.07-.8-3.05-.9c-2-.13-3.46.88-3.56 1.82-.1.95.5 1.5 1.4 1.84 0 0 .76.25 1.34.38.57.13.94.52.25.66-.7.13-2.1-.38-2.52-.82zM42.5 21.57l-1.68-.16.2-2.03 6.5.64-.18 2.04-1.7-.16-.4 4.22-3.08-.3M28.48 25.23l3 .28-.33 3.55s-.3.85.7.95c1 .1.96-.82.96-.82l.33-3.5 3 .3-.38 4.12s-.35 2.25-4.03 1.9c-3.67-.36-3.62-2.73-3.62-2.73l.38-4.04z"/><path fill="#010101" d="M39.58 26.3l.86 1.74 1.1-1.53 3.5.34-3.26 3.3-.25 2.68-3.06-.3.25-2.64-2.6-3.9M26.54 28.12s1.26-.25 1.23-1.56c-.03-1.32-2.6-1.64-2.6-1.64l-4.25-.43-.58 6.26s3.4.36 4.38.44c.98.08 2.97 0 3.17-1.3.18-1.3-1.36-1.78-1.36-1.78zm-2.9-1.8s1.3-.1 1.24.5c-.08.63-1.3.35-1.3.35l.07-.84zm-.27 3.2l.07-1s1.63-.08 1.58.64c-.05.7-1.65.36-1.65.36zM25.92 20.94s1.26-.25 1.23-1.56c-.03-1.32-2.6-1.65-2.6-1.65l-4.25-.42-.58 6.27s3.4.37 4.38.45c.98.08 2.97 0 3.17-1.3.2-1.3-1.35-1.78-1.35-1.78zm-2.87-1.78s1.3-.12 1.23.5c-.07.63-1.3.35-1.3.35l.07-.84zm-.27 3.2l.07-1.02s1.63-.06 1.58.65c-.06.7-1.65.36-1.65.36zM45.06 27.46c.03-.28.27-.48.54-.46.27.03.48.28.45.56-.03.27-.27.48-.54.45-.26-.02-.46-.26-.44-.54zm.87.08c.02-.23-.13-.42-.34-.44-.2-.02-.4.14-.42.37-.02.24.13.42.34.44.2.03.4-.12.4-.36zm-.54-.34l.2.02c.13 0 .2.07.2.2-.02.1-.08.13-.17.13l.13.26h-.1l-.13-.26h-.06l-.03.24h-.1l.05-.58zm.07.25h.1c.06.02.1.02.12-.06 0-.08-.06-.1-.12-.1h-.1v.15z"/><rect fill-opacity=".25" fill="#003C66" x="63" y="17" width="163" height="19" rx="4"/><rect fill="#FFF" x="64" y="18" width="160" height="16" rx="3"/><rect fill="#EFF2F6" x="21" y="81" width="80" height="13" rx="2"/><path stroke="#9FADC1" stroke-width="1.5" d="M89 89l3-3 3 3"/><rect fill="#EFF2F6" x="21" y="237" width="80" height="13" rx="2"/><path stroke="#9FADC1" stroke-width="1.5" d="M89 242l3 3 3-3"/><rect fill="#F5F6F8" x="120" y="99" width="104" height="10" rx="2"/><path stroke="#126AC8" stroke-width="1.5" d="M214.5 103l2.5 2 2.5-2"/><rect fill="#EFF2F6" x="21" y="257" width="80" height="13" rx="2"/><path stroke="#9FADC1" stroke-width="1.5" d="M89 262l3 3 3-3"/><rect fill="#EFF2F6" x="21" y="277" width="80" height="13" rx="2"/><path stroke="#9FADC1" stroke-width="1.5" d="M89 282l3 3 3-3"/><rect fill="#EFF2F6" x="21" y="297" width="80" height="13" rx="2"/><path stroke="#9FADC1" stroke-width="1.5" d="M89 302l3 3 3-3"/><rect fill="#EFF2F6" x="21" y="317" width="80" height="13" rx="2"/><path stroke="#9FADC1" stroke-width="1.5" d="M89 322l3 3 3-3"/><rect fill="#EFF2F6" x="21" y="337" width="80" height="13" rx="2"/><path stroke="#9FADC1" stroke-width="1.5" d="M89 342l3 3 3-3"/><rect stroke="#E3E7ED" stroke-width="2" x="22" y="114" width="5" height="5" rx="1"/><rect fill="#F5F6F8" x="34" y="115" width="40" height="3" rx="1"/><rect stroke="#E3E7ED" stroke-width="2" x="22" y="128" width="5" height="5" rx="1"/><rect fill="#F5F6F8" x="34" y="129" width="30" height="3" rx="1"/><rect fill="#116AC8" x="21" y="141" width="7" height="7" rx="2"/><rect fill="#DADFE6" x="34" y="143" width="35" height="3" rx="1"/><rect fill="#DADFE6" x="133" y="88" width="20" height="2" rx="1"/><rect stroke="#E3E7ED" stroke-width="2" x="22" y="156" width="5" height="5" rx="1"/><rect fill="#F5F6F8" x="34" y="157" width="50" height="3" rx="1"/><rect stroke="#E3E7ED" stroke-width="2" x="22" y="170" width="5" height="5" rx="1"/><rect fill="#F5F6F8" x="34" y="171" width="27" height="3" rx="1"/><rect fill="#F5F6F8" opacity=".9" x="245" y="176" width="40" height="3" rx="1"/><circle fill="#8F9EB3" cx="239.5" cy="177.5" r="1.5"/><rect fill="#F5F6F8" opacity=".9" x="245" y="183" width="27" height="3" rx="1"/><circle fill="#8F9EB3" cx="239.5" cy="184.5" r="1.5"/><rect fill="#F5F6F8" opacity=".9" x="245" y="190" width="34" height="3" rx="1"/><circle fill="#8F9EB3" cx="239.5" cy="191.5" r="1.5"/><rect stroke="#E3E7ED" stroke-width="2" x="22" y="184" width="5" height="5" rx="1"/><rect fill="#F5F6F8" x="34" y="185" width="35" height="3" rx="1"/><rect stroke="#E3E7ED" stroke-width="2" x="22" y="198" width="5" height="5" rx="1"/><rect fill="#F5F6F8" x="34" y="199" width="28" height="3" rx="1"/><rect stroke="#E3E7ED" stroke-width="2" x="22" y="212" width="5" height="5" rx="1"/><rect fill="#F5F6F8" x="34" y="213" width="34" height="3" rx="1"/><g transform="translate(353 156)"><rect fill="#FCE000" width="62" height="16" rx="3"/><rect fill="#FFE900" x="1" y="1" width="60" height="13" rx="2"/></g><g transform="translate(210 22)" stroke="#BFCBDB" stroke-width="2"><circle cx="3" cy="3" r="3"/><path d="M4.5 4.5L8 8"/></g><path d="M120 93h4c1.1 0 2-.9 2-2v-7c0-1.1.9-2 2-2h30c1.1 0 2 .9 2 2v7c0 1.1.9 2 2 2h253" stroke-opacity=".5" stroke="#D6DCE5" stroke-width="2"/><path fill="#EAEDF2" d="M120 115h295v2H120zM120 252h295v2H120z"/><path d="M400 100h3v3h-3v-3zm0 5h3v3h-3v-3zm5-5h3v3h-3v-3zm0 5h3v3h-3v-3zM383 101c0-.55.46-1 1-1h8c.55 0 1 .44 1 1 0 .55-.46 1-1 1h-8c-.55 0-1-.44-1-1zm0 3c0-.55.46-1 1-1h8c.55 0 1 .44 1 1 0 .55-.46 1-1 1h-8c-.55 0-1-.44-1-1zm0 3c0-.55.46-1 1-1h8c.55 0 1 .44 1 1 0 .55-.46 1-1 1h-8c-.55 0-1-.44-1-1z" fill="#126AC8"/><rect fill="#E4F6F9" x="120" y="123" width="20" height="10" rx="2"/><rect fill="#E4F6F9" x="144" y="123" width="20" height="10" rx="2"/><rect fill="#126AC8" x="238" y="156" width="65" height="2" rx="1"/><path stroke="#FCE000" d="M282 217l-2.35 1.24.45-2.62-1.9-1.86 2.62-.38L282 211l1.18 2.38 2.62.38-1.9 1.86.45 2.62z"/><path stroke="#FCE000" fill="#FFE900" d="M242 217l-2.35 1.24.45-2.62-1.9-1.86 2.62-.38L242 211l1.18 2.38 2.62.38-1.9 1.86.45 2.62zM252 217l-2.35 1.24.45-2.62-1.9-1.86 2.62-.38L252 211l1.18 2.38 2.62.38-1.9 1.86.45 2.62zM262 217l-2.35 1.24.45-2.62-1.9-1.86 2.62-.38L262 211l1.18 2.38 2.62.38-1.9 1.86.45 2.62zM272 217l-2.35 1.24.45-2.62-1.9-1.86 2.62-.38L272 211l1.18 2.38 2.62.38-1.9 1.86.45 2.62z"/><rect fill="#F5D700" x="375" y="162" width="18" height="3" rx="1"/><rect fill="#F5F6F8" opacity=".9" x="245" y="299" width="40" height="3" rx="1"/><circle fill="#8F9EB3" cx="239.5" cy="300.5" r="1.5"/><rect fill="#F5F6F8" opacity=".9" x="245" y="306" width="27" height="3" rx="1"/><circle fill="#8F9EB3" cx="239.5" cy="307.5" r="1.5"/><rect fill="#F5F6F8" opacity=".9" x="245" y="313" width="34" height="3" rx="1"/><path fill="#000" d="M126 349.77l.65-1.56 4.46-4.2 2.2.16 1.46.93.24 1.9-3.08-.27-4.95 3.27M218 349.77l-.65-1.56-4.46-4.2-2.2.16-1.46.93-.24 1.9 3.08-.27 4.95 3.27"/><circle fill="#8F9EB3" cx="239.5" cy="314.5" r="1.5"/><g transform="translate(353 279)"><rect fill="#FCE000" width="62" height="16" rx="3"/><rect fill="#FFE900" x="1" y="1" width="60" height="13" rx="2"/></g><path fill="#EAEDF2" d="M120 375h295v2H120z"/><rect fill="#050A19" x="120" y="279" width="104" height="65" rx="3"/><rect fill="#61636E" x="169" y="341" width="6" height="2" rx="1"/><rect fill="#1A2338" x="122" y="281" width="100" height="59" rx="1"/><path d="M210 279h11c1.66 0 3 1.34 3 3v59c0 1.65-1.35 3-3 3h-52l41-65z" fill="#FFF" opacity=".1"/><rect fill="#126AC8" x="238" y="279" width="51" height="2" rx="1"/><path stroke="#FCE000" d="M282 340l-2.35 1.24.45-2.62-1.9-1.86 2.62-.38L282 334l1.18 2.38 2.62.38-1.9 1.86.45 2.62z"/><path stroke="#FCE000" fill="#FFE900" d="M242 340l-2.35 1.24.45-2.62-1.9-1.86 2.62-.38L242 334l1.18 2.38 2.62.38-1.9 1.86.45 2.62zM252 340l-2.35 1.24.45-2.62-1.9-1.86 2.62-.38L252 334l1.18 2.38 2.62.38-1.9 1.86.45 2.62z"/><path stroke="#FCE000" d="M262 340l-2.35 1.24.45-2.62-1.9-1.86 2.62-.38L262 334l1.18 2.38 2.62.38-1.9 1.86.45 2.62zM272 340l-2.35 1.24.45-2.62-1.9-1.86 2.62-.38L272 334l1.18 2.38 2.62.38-1.9 1.86.45 2.62z"/><rect fill="#F5D700" x="375" y="285" width="18" height="3" rx="1"/><rect fill="#F5F6F8" opacity=".9" x="245" y="422" width="40" height="3" rx="1"/><circle fill="#8F9EB3" cx="239.5" cy="423.5" r="1.5"/><rect fill="#F5F6F8" opacity=".9" x="245" y="429" width="27" height="3" rx="1"/><circle fill="#8F9EB3" cx="239.5" cy="430.5" r="1.5"/><rect fill="#F5F6F8" opacity=".9" x="245" y="436" width="34" height="3" rx="1"/><circle fill="#8F9EB3" cx="239.5" cy="437.5" r="1.5"/><g transform="translate(353 402)"><rect fill="#FCE000" width="62" height="16" rx="3"/><rect fill="#FFE900" x="1" y="1" width="60" height="13" rx="2"/></g><path fill="#EAEDF2" d="M120 498h295v2H120z"/><path d="M120 405c0-1.66 1.35-3 3-3h98c1.66 0 3 1.34 3 3v57c0 1.66-1.35 3-3 3h-98c-1.66 0-3-1.34-3-3v-57zm29.8 64.4c1.16-.78 3.2-1.4 4.6-1.4h35.2c1.4 0 3.44.62 4.6 1.4l3.3 2.2c1.14.78.94 1.4-.42 1.4h-50.16c-1.37 0-1.56-.62-.4-1.4l3.3-2.2zm18.3-4.4c.3.97.38 2 .1 3h7.6c-.28-1-.2-2.03.1-3h-7.8z" fill="#C2CCD9"/><rect fill="#1F2A3F" x="122" y="404" width="100" height="59" rx="1"/><path d="M210 402h11c1.66 0 3 1.34 3 3v57c0 1.66-1.33 3-3 3h-51l40-63z" fill="#FFF" opacity=".1"/><rect fill="#126AC8" x="238" y="402" width="60" height="2" rx="1"/><path stroke="#FCE000" d="M282 463l-2.35 1.24.45-2.62-1.9-1.86 2.62-.38L282 457l1.18 2.38 2.62.38-1.9 1.86.45 2.62z"/><path stroke="#FCE000" fill="#FFE900" d="M242 463l-2.35 1.24.45-2.62-1.9-1.86 2.62-.38L242 457l1.18 2.38 2.62.38-1.9 1.86.45 2.62zM252 463l-2.35 1.24.45-2.62-1.9-1.86 2.62-.38L252 457l1.18 2.38 2.62.38-1.9 1.86.45 2.62zM262 463l-2.35 1.24.45-2.62-1.9-1.86 2.62-.38L262 457l1.18 2.38 2.62.38-1.9 1.86.45 2.62z"/><path stroke="#FCE000" d="M272 463l-2.35 1.24.45-2.62-1.9-1.86 2.62-.38L272 457l1.18 2.38 2.62.38-1.9 1.86.45 2.62z"/><rect fill="#F5D700" x="375" y="408" width="18" height="3" rx="1"/><rect fill="#126AC8" x="401" y="523" width="14" height="14" rx="2"/><path stroke="#FFF" stroke-width="2" d="M406 527l4 3-4 3"/><rect fill="#DADFE6" x="120" y="523" width="14" height="14" rx="2"/><path stroke="#FFF" stroke-width="2" d="M129 527l-4 3 4 3"/><g transform="translate(233 529)"><rect fill="#A2B1C5" width="8" height="2" rx="1"/><rect fill="#126AC8" x="15" width="8" height="2" rx="1"/><rect fill="#126AC8" x="30" width="8" height="2" rx="1"/><rect fill="#126AC8" x="45" width="8" height="2" rx="1"/><rect fill="#126AC8" x="60" width="8" height="2" rx="1"/></g><path d="M120 217.9l.44-1.8 8.33-3.1h2.92l-.63.57-9.92 4.43-1.15-.1zm104 0l-.44-1.8-8.33-3.1h-2.92l.63.57 9.92 4.43 1.15-.1z" fill="#829AA4"/><path d="M178.88 213.67c20.32.1 39.15.53 43.12 1.33v-55c-16.04.72-32.8 1.1-50.1 1.1-17.2 0-33.92-.38-49.9-1.1v55c4-.8 23-1.25 43.47-1.33.1.75.72 1.33 1.5 1.33h10.42c.77 0 1.4-.58 1.48-1.33z" fill="#343E47"/><path d="M219 212c-8.3-1.63-85.7-1.63-94 0v-50c15.02.66 30.74.84 46.92.84 16.23 0 32-.18 47.08-.84v50z" fill="#26303C"/><ellipse fill="#ADFFD9" opacity=".6" cx="172.28" cy="216.89" rx="7" ry="1"/><path d="M208.52 161h10.5c1.64 0 2.98 1.34 2.98 3v46c0 1.66-1.34 3-3 3h-49l38.52-52z" fill="#FFF" opacity=".05"/><g transform="translate(338 19)"><path d="M6.7 8.3c1.44 0 2.6-1.16 2.6-2.6 0-1.43-1.16-2.6-2.6-2.6-1.43 0-2.6 1.17-2.6 2.6 0 1.44 1.17 2.6 2.6 2.6zm4.37 2.54C10.14 9.62 8.54 8.8 6.7 8.8c-1.83 0-3.44.82-4.36 2.04 1.05 1.3 2.6 2.12 4.36 2.12 1.75 0 3.32-.82 4.37-2.12z" fill="#89B4D0"/><circle stroke="#89B4D0" stroke-width="2" cx="6.5" cy="6.5" r="6.5"/></g><rect fill="#89B4D0" x="370" y="19" width="11" height="13" rx="1"/><path d="M373 27h5v1h-5v-1zm0-2h5v1h-5v-1zm0-2h5v1h-5v-1z" fill="#004D85"/><path d="M402.93 21.1H415l-2.07 8.3h-9.86l-2-8.03H401v-.78h-2.07l-.26-1.04h3.37l.9 1.55zM405.4 32c.72 0 1.3-.58 1.3-1.3 0-.7-.58-1.3-1.3-1.3-.7 0-1.3.6-1.3 1.3 0 .72.6 1.3 1.3 1.3zm5.2 0c.7 0 1.3-.58 1.3-1.3 0-.7-.6-1.3-1.3-1.3-.72 0-1.3.6-1.3 1.3 0 .72.58 1.3 1.3 1.3z" fill="#89B4D0"/></g></svg>